<?xml version="1.0" encoding="UTF-8" standalone="no"?>
<!-- Created with Inkscape (http://www.inkscape.org/) -->

<svg
   width="512"
   height="512"
   viewBox="0 0 512 512"
   version="1.1"
   id="svg1"
   inkscape:version="1.4.3 (0d15f75042, 2025-12-25)"
   sodipodi:docname="cookiepfp.svg"
   xmlns:inkscape="http://www.inkscape.org/namespaces/inkscape"
   xmlns:sodipodi="http://sodipodi.sourceforge.net/DTD/sodipodi-0.dtd"
   xmlns="http://www.w3.org/2000/svg"
   xmlns:svg="http://www.w3.org/2000/svg">
  <sodipodi:namedview
     id="namedview1"
     pagecolor="#ffffff"
     bordercolor="#000000"
     borderopacity="0.25"
     inkscape:showpageshadow="2"
     inkscape:pageopacity="0.0"
     inkscape:pagecheckerboard="0"
     inkscape:deskcolor="#d1d1d1"
     inkscape:document-units="px"
     inkscape:zoom="1.5136505"
     inkscape:cx="250.71839"
     inkscape:cy="252.0397"
     inkscape:window-width="1771"
     inkscape:window-height="956"
     inkscape:window-x="0"
     inkscape:window-y="0"
     inkscape:window-maximized="1"
     inkscape:current-layer="layer1" />
  <defs
     id="defs1" />
  <g
     inkscape:label="Layer 1"
     inkscape:groupmode="layer"
     id="layer1">
    <circle
       style="fill:#d00000;fill-opacity:1;stroke-width:0.992243"
       id="path1"
       cx="255.28525"
       cy="255.33936"
       r="253.55089" />
    <ellipse
       style="fill:none;fill-opacity:1;stroke:#000000;stroke-opacity:1"
       id="path4"
       cx="98.102188"
       cy="202.74452"
       rx="37.372261"
       ry="34.569344" />
    <ellipse
       style="fill:none;fill-opacity:1;stroke:#000000;stroke-opacity:1"
       id="path5"
       cx="287.76642"
       cy="104.64233"
       rx="35.503651"
       ry="44.846714" />
    <ellipse
       style="fill:none;fill-opacity:1;stroke:#000000;stroke-opacity:1"
       id="path6"
       cx="385.40146"
       cy="322.33575"
       rx="56.525547"
       ry="42.978104" />
    <ellipse
       style="fill:none;fill-opacity:1;stroke:#000000;stroke-opacity:1"
       id="path7"
       cx="221.43066"
       cy="347.56204"
       rx="64.467155"
       ry="51.38686" />
    <ellipse
       style="fill:none;fill-opacity:1;stroke:#000000;stroke-opacity:1"
       id="path8"
       cx="372.32117"
       cy="174.24817"
       rx="36.905109"
       ry="35.036495" />
    <ellipse
       style="fill:none;fill-opacity:1;stroke:#000000;stroke-opacity:1"
       id="path9"
       cx="238.24817"
       cy="200.40875"
       rx="42.043797"
       ry="41.576641" />
    <path
       style="fill:#d00000;fill-opacity:1;stroke:#000000;stroke-opacity:1"
       d="m 61.853779,194.14984 c 67.964831,-9.99239 67.964831,-9.99239 67.964831,-9.99239"
       id="path11" />
    <path
       style="fill:#d00000;fill-opacity:1;stroke:#000000;stroke-opacity:1"
       d="m 61.193124,208.35392 72.671996,3.13811 h 0.33033"
       id="path12" />
    <path
       style="fill:#ccff00;fill-opacity:1;stroke:#000000;stroke-width:0.0825818;stroke-opacity:1"
       d="m 62.763339,193.19487 c 0.09058,-0.41241 0.871113,-2.4704 1.313471,-3.46315 2.309176,-5.18234 6.176721,-9.94665 10.970655,-13.51442 5.081213,-3.78156 11.459942,-6.3296 17.939658,-7.16614 1.791116,-0.23123 2.928008,-0.29806 5.073712,-0.29823 4.582715,-3.5e-4 8.254695,0.5835 12.474925,1.98354 5.82659,1.93295 10.69359,4.95619 14.90883,9.26095 1.1305,1.1545 3.17181,3.54583 3.17543,3.71991 6.4e-4,0.0305 -0.10104,0.0761 -0.22594,0.10136 -0.19798,0.0401 -64.236311,9.45538 -65.290236,9.59935 l -0.401571,0.0549 z"
       id="path13" />
    <path
       style="fill:#000080;fill-opacity:1;stroke:#000000;stroke-width:0.0825818;stroke-opacity:1"
       d="M 97.380217,209.38725 C 77.76772,208.534 61.707974,207.82238 61.691893,207.80587 c -0.077,-0.0791 -0.304634,-2.268 -0.373114,-3.5879 -0.149324,-2.87813 0.131892,-5.86616 0.831713,-8.83724 l 0.176912,-0.75108 0.630297,-0.0951 c 0.346663,-0.0523 15.420699,-2.26976 33.497858,-4.92762 l 32.867561,-4.83246 0.1717,0.21195 c 0.31611,0.39023 1.36235,2.17235 1.92484,3.27871 1.73882,3.42004 2.82722,7.00674 3.32693,10.96355 0.17413,1.37875 0.14851,5.94647 -0.0412,7.34978 -0.14975,1.10761 -0.53231,3.13231 -0.74118,3.92263 l -0.10912,0.41291 -0.40788,0.0123 c -0.22434,0.007 -16.45448,-0.68578 -36.066973,-1.53904 z"
       id="path14" />
    <path
       style="fill:#ff00ff;fill-opacity:1;stroke:#000000;stroke-width:0.0825818;stroke-opacity:1"
       d="m 96.620722,236.7483 c -13.888228,-0.54539 -26.256173,-8.22936 -32.012009,-19.88846 -1.214244,-2.45958 -2.187243,-5.26118 -2.670761,-7.69003 l -0.05129,-0.25766 0.561633,0.0345 c 0.308898,0.019 10.92978,0.47984 23.601959,1.02416 40.903656,1.75699 47.371766,2.04158 47.416416,2.08623 0.13073,0.13073 -0.99688,3.02313 -1.87239,4.80281 -4.50964,9.16693 -13.29131,16.06544 -23.81412,18.70738 -2.56032,0.64281 -5.03166,1.00924 -7.77358,1.1526 -1.483589,0.0776 -2.020838,0.0821 -3.385854,0.0285 z"
       id="path15" />
    <path
       style="fill:#ff00ff;fill-opacity:1;stroke:#000000;stroke-opacity:1"
       d="m 219.50246,237.17497 c 31.21593,-76.47076 31.21593,-76.47076 31.21593,-76.47076"
       id="path16" />
    <path
       style="fill:#ff00ff;fill-opacity:1;stroke:#000000;stroke-opacity:1"
       d="m 202.16028,222.31024 20.14996,-60.11956"
       id="path18" />
    <path
       style="fill:#ff00ff;fill-opacity:1;stroke:#000000;stroke-opacity:1"
       d="m 271.36384,174.08246 -42.61222,66.23062"
       id="path19" />
    <path
       style="fill:#ff00ff;fill-opacity:1;stroke:#000000;stroke-opacity:1"
       d="M 242.79053,241.30406 277.4749,185.31359"
       id="path20" />
    <path
       style="fill:#ffcc00;fill-opacity:1;stroke:#000000;stroke-width:0.165164;stroke-opacity:1"
       d="m 201.85126,220.05357 c -0.60054,-0.91669 -2.11862,-4.35858 -2.79398,-6.33466 -1.43107,-4.18723 -2.05166,-7.55285 -2.20746,-11.97154 -0.50403,-14.29529 6.49443,-27.61343 18.72757,-35.63872 1.37946,-0.90497 5.82445,-3.28473 5.82445,-3.11829 0,0.11507 -19.1845,57.33403 -19.24304,57.39354 -0.0301,0.0306 -0.16848,-0.11806 -0.30754,-0.33033 z"
       id="path21" />
    <path
       style="fill:#800080;fill-opacity:1;stroke:#000000;stroke-width:0.165164;stroke-opacity:1"
       d="m 217.73394,236.02024 c -3.35155,-1.8911 -5.94471,-3.88701 -8.8897,-6.84221 -2.14876,-2.15623 -4.6292,-5.1779 -5.56984,-6.7852 l -0.3383,-0.57808 9.96015,-29.70984 c 5.47808,-16.34041 10.06023,-29.77247 10.18256,-29.84901 0.57613,-0.3605 4.59864,-1.53182 6.74638,-1.9645 3.52533,-0.7102 5.63619,-0.88149 9.63657,-0.78196 3.59169,0.0894 5.71399,0.36182 8.91668,1.14471 1.30605,0.31926 1.45139,0.39244 1.3879,0.69882 -0.0633,0.30552 -30.39951,74.71455 -30.65496,75.19088 -0.0715,0.13336 -0.50544,-0.0316 -1.37744,-0.52361 z"
       id="path22" />
    <path
       style="fill:#ffd5d5;fill-opacity:1;stroke:#000000;stroke-width:0.165164;stroke-opacity:1"
       d="m 226.19159,239.63387 c -2.72095,-0.83302 -6.04238,-2.2511 -5.9736,-2.55042 0.0622,-0.27049 30.75734,-75.51874 30.84556,-75.61689 0.12594,-0.14011 3.19039,1.08334 5.32021,2.12404 3.78616,1.85003 6.93866,3.97021 9.89606,6.65546 1.46012,1.32575 4.01046,4.04658 4.01046,4.27856 0,0.0779 -9.4391,14.81154 -20.97578,32.74145 -11.53668,17.92992 -20.97578,32.68188 -20.97578,32.78214 0,0.24501 0.0177,0.24842 -2.14713,-0.41434 z"
       id="path23" />
    <path
       style="fill:#2b1100;fill-opacity:1;stroke:#000000;stroke-width:0.165164;stroke-opacity:1"
       d="m 234.06654,241.2063 c -0.7104,-0.075 -1.95535,-0.25095 -2.76657,-0.39094 -0.81121,-0.14 -1.55467,-0.25454 -1.65213,-0.25454 -0.0975,0 -0.15317,-0.10175 -0.1238,-0.22612 0.0294,-0.12437 9.40999,-14.7661 20.84583,-32.53716 l 20.79243,-32.31103 0.70552,0.94961 c 1.26197,1.69856 2.56043,3.87581 3.72362,6.24372 0.62712,1.27663 1.14022,2.41057 1.14022,2.51986 0,0.1093 -7.72966,12.67659 -17.17702,27.92733 -9.44736,15.25073 -17.17702,27.80056 -17.17702,27.88852 0,0.088 -0.39019,0.20679 -0.8671,0.26407 -1.17447,0.14107 -5.85,0.095 -7.44398,-0.0733 z"
       id="path24" />
    <path
       style="fill:#008000;fill-opacity:1;stroke:#000000;stroke-width:0.165164;stroke-opacity:1"
       d="m 243.89851,240.66798 c 0.11733,-0.21694 7.68031,-12.44383 16.80661,-27.17086 9.84556,-15.88769 16.63946,-26.69312 16.70683,-26.57158 0.45376,0.81854 1.55363,5.41836 1.98412,8.29787 0.32911,2.20136 0.28876,8.41914 -0.0703,10.82786 -1.92048,12.88456 -9.53647,23.81978 -21.04817,30.22147 -4.05652,2.25584 -9.22739,4.00091 -13.88363,4.68547 -0.70681,0.10391 -0.70822,0.10309 -0.4955,-0.29023 z"
       id="path25" />
    <path
       style="fill:#008000;fill-opacity:1;stroke:#000000;stroke-opacity:1"
       d="M 252.53519,111.81578 C 315.29737,76.140433 315.29737,76.140433 315.29737,76.140433"
       id="path26" />
    <path
       style="fill:#008000;fill-opacity:1;stroke:#000000;stroke-opacity:1"
       d="M 278.30071,147.98661 C 316.949,79.113378 316.949,79.113378 316.949,79.113378"
       id="path27" />
    <path
       style="fill:#008000;fill-opacity:1;stroke:#000000;stroke-opacity:1"
       d="M 268.90511,102.13139 C 280.11679,61.19708 280.11679,61.19708 280.11679,61.19708"
       id="path28" />
    <path
       style="fill:#008000;fill-opacity:1;stroke:#000000;stroke-width:0.165164;stroke-opacity:1"
       d="m 269.86318,100.90273 c 0.0653,-0.26578 2.44838,-8.9933 5.29566,-19.39448 2.84728,-10.401179 5.25797,-19.216966 5.3571,-19.590637 l 0.18024,-0.679402 1.3623,-0.266169 c 6.47573,-1.265238 12.80951,-0.400712 18.64474,2.544901 4.31967,2.180561 9.1533,6.349553 12.33204,10.63634 l 1.34334,1.811613 -0.44902,0.27595 c -0.24696,0.151772 -10.03676,5.718906 -21.75512,12.371408 -11.71836,6.652501 -21.559,12.248066 -21.86809,12.434586 l -0.56197,0.33913 z"
       id="path29" />
    <path
       style="fill:#0000ff;fill-opacity:1;stroke:#000000;stroke-width:0.165164;stroke-opacity:1"
       d="m 253.01303,109.13187 c -0.21154,-2.59923 -0.11846,-8.16141 0.17896,-10.694348 1.86486,-15.881891 10.08159,-29.078989 21.76139,-34.951473 1.40218,-0.705005 4.2495,-1.858717 4.34689,-1.761328 0.11806,0.11806 -10.9876,40.329239 -11.18976,40.515669 -0.18927,0.17455 -14.80351,8.50182 -14.92057,8.50182 -0.0252,0 -0.10483,-0.72465 -0.17691,-1.61034 z"
       id="path30" />
    <path
       style="fill:#0000ff;fill-opacity:1;stroke:#000000;stroke-width:0.165164;stroke-opacity:1"
       d="m 277.22715,146.87417 c -0.2271,-0.0999 -1.23047,-0.58402 -2.22971,-1.07575 -9.13556,-4.49569 -16.57937,-14.12198 -19.99245,-25.85414 -0.56155,-1.93027 -1.48398,-6.19432 -1.59247,-7.36138 l -0.0515,-0.55418 30.77818,-17.496505 c 21.08701,-11.987346 30.83802,-17.446564 30.96818,-17.337901 0.1045,0.08723 0.40704,0.560917 0.67231,1.052638 l 0.48232,0.894037 -19.06194,33.968611 c -12.52394,22.31782 -19.14735,33.96478 -19.31097,33.95743 -0.13697,-0.006 -0.43484,-0.0929 -0.66194,-0.19286 z"
       id="path31" />
    <path
       style="fill:#ccff00;fill-opacity:1;stroke:#000000;stroke-width:0.165164;stroke-opacity:1"
       d="m 283.99886,148.65627 c -1.53248,-0.22098 -4.18382,-0.8342 -4.55983,-1.05463 -0.12221,-0.0716 6.43973,-11.9211 18.65462,-33.68626 l 18.84314,-33.575737 0.40314,0.790758 c 2.6928,5.281989 4.58424,12.261795 5.15396,19.019279 0.24364,2.88974 0.11308,8.87373 -0.25273,11.58351 -0.5988,4.43573 -1.77115,8.97213 -3.30934,12.80544 -5.15898,12.85667 -14.69958,21.63112 -25.9516,23.86757 -2.30092,0.45733 -6.6955,0.57969 -8.98136,0.25007 z"
       id="path32" />
    <path
       style="fill:#abc837;fill-opacity:1;stroke:#000000;stroke-width:0.165164;stroke-opacity:1"
       d="m 275.41035,145.78546 c -2.55137,-1.27708 -4.63996,-2.63763 -6.72443,-4.38046 -5.80958,-4.85739 -10.52665,-12.15552 -13.14658,-20.34006 -0.75149,-2.34762 -1.79975,-7.01912 -1.82688,-8.14136 l -0.0211,-0.87416 10.32273,-5.87216 c 28.15343,-16.015296 41.83693,-23.753897 49.13408,-27.78741 1.9949,-1.102683 1.90954,-1.105195 2.55352,0.07514 l 0.36715,0.672924 -12.09098,21.541586 c -20.18799,35.96741 -26.02398,46.24351 -26.25363,46.22779 -0.0463,-0.003 -1.08751,-0.508 -2.31385,-1.12183 z"
       id="path33" />
    <path
       style="fill:#abc837;fill-opacity:1;stroke:#000000;stroke-opacity:1"
       d="m 397.89781,199.82482 c -1.28467,-0.11679 -57.69343,-8.9927 -57.69343,-8.9927"
       id="path35" />
    <path
       style="fill:#abc837;fill-opacity:1;stroke:#000000;stroke-opacity:1"
       d="m 336.35037,180.55474 71.59124,-16.11678"
       id="path36" />
    <path
       style="fill:#abc837;fill-opacity:1;stroke:#000000;stroke-opacity:1"
       d="m 341.83942,153.92701 63.88321,6.42336"
       id="path37" />
    <path
       style="fill:#abc837;fill-opacity:1;stroke:#000000;stroke-width:0.116788;stroke-opacity:1"
       d="m 336.30917,178.96066 c -0.96021,-6.72238 0.16259,-13.47583 3.25912,-19.603 0.91964,-1.81971 2.66388,-4.62795 2.94031,-4.73392 0.0816,-0.0313 14.26469,1.36266 31.518,3.09765 17.25332,1.73499 31.47172,3.15452 31.59644,3.15452 0.18111,0 0.33508,0.2763 0.76471,1.37227 0.29587,0.75474 0.55631,1.47448 0.57875,1.59942 0.0379,0.21078 -2.47242,0.79359 -34.82051,8.08437 -19.17373,4.32146 -35.04946,7.89022 -35.27942,7.93058 l -0.4181,0.0734 z"
       id="path38" />
    <path
       style="fill:#008000;fill-opacity:1;stroke:#000000;stroke-width:0.116788;stroke-opacity:1"
       d="m 396.78832,199.10071 c -0.16058,-0.0275 -2.31533,-0.3595 -4.78832,-0.73781 -5.12264,-0.78366 -22.98582,-3.57217 -39.99906,-6.24402 -6.35861,-0.99859 -11.62063,-1.79277 -11.69339,-1.76485 -0.17037,0.0654 -1.74074,-3.1968 -2.36809,-4.91934 -0.67053,-1.84106 -1.32261,-4.3546 -1.14433,-4.41093 0.69265,-0.21883 70.5198,-15.84995 70.57191,-15.79784 0.13042,0.13042 0.62584,2.26172 0.86348,3.71472 0.91057,5.56743 0.35573,11.36613 -1.59417,16.6609 -1.15152,3.12684 -3.26865,6.87215 -5.36635,9.49335 -1.07795,1.34695 -3.77774,4.09135 -4.00551,4.07169 -0.10131,-0.009 -0.31558,-0.0384 -0.47617,-0.0659 z"
       id="path39" />
    <path
       style="fill:#aa8800;fill-opacity:1;stroke:#000000;stroke-width:0.116788;stroke-opacity:1"
       d="m 370.33577,208.6897 c -4.12433,-0.31592 -7.0865,-0.89645 -10.39416,-2.03705 -4.40689,-1.51965 -8.24269,-3.69093 -11.79974,-6.6793 -1.29534,-1.08825 -3.70226,-3.55372 -4.7626,-4.87846 -0.75974,-0.94918 -2.55939,-3.51816 -2.50172,-3.57119 0.0152,-0.0139 3.99544,0.59908 8.84508,1.36227 23.74465,3.73674 46.20748,7.23082 46.48561,7.23082 0.1848,0 -1.26277,1.14258 -2.69362,2.12612 -4.89342,3.36362 -10.69144,5.51164 -16.81389,6.22913 -1.46294,0.17144 -5.26917,0.3016 -6.36496,0.21766 z"
       id="path40" />
    <path
       style="fill:#6c6753;fill-opacity:1;stroke:#000000;stroke-width:0.116788;stroke-opacity:1"
       d="m 373.95621,156.60494 c -16.70073,-1.69042 -30.43508,-3.07646 -30.52077,-3.08009 -0.22966,-0.01 0.40847,-0.77233 2.1412,-2.55888 4.22814,-4.35944 9.10999,-7.41201 14.84145,-9.28021 4.12051,-1.3431 7.50194,-1.87605 11.90308,-1.87605 4.51262,0 8.27262,0.61778 12.37956,2.03399 5.59224,1.92841 10.20695,4.85084 14.31051,9.06265 1.76461,1.81117 2.72179,2.99052 4.07422,5.0199 0.87117,1.30723 2.11162,3.48824 2.11162,3.71274 0,0.038 -0.19708,0.0624 -0.43796,0.0542 -0.24087,-0.008 -14.10218,-1.39787 -30.80291,-3.08828 z"
       id="path41" />
    <path
       style="fill:#ff00ff;fill-opacity:1;stroke:#000000;stroke-opacity:1"
       d="m 335.77766,301.42362 100.91497,3.96393"
       id="path44" />
    <path
       style="fill:#ff00ff;fill-opacity:1;stroke:#000000;stroke-opacity:1"
       d="m 350.31206,355.76245 87.37155,-17.17701"
       id="path45" />
    <path
       style="fill:#ff00ff;fill-opacity:1;stroke:#000000;stroke-opacity:1"
       d="m 441.64754,321.24326 -113.13708,0.66065"
       id="path46" />
    <path
       style="fill:#ff00ff;fill-opacity:1;stroke:#000000;stroke-opacity:1"
       d="m 172.0292,313.92701 113.05109,36.78832"
       id="path47" />
    <path
       style="fill:#ff00ff;fill-opacity:1;stroke:#000000;stroke-opacity:1"
       d="M 216.9927,398.59854 166.89051,320.70073"
       id="path48" />
    <path
       style="fill:#ff00ff;fill-opacity:1;stroke:#000000;stroke-opacity:1"
       d="M 242.29504,396.06238 167.80625,318.93097"
       id="path49" />
    <path
       style="fill:#ff00ff;fill-opacity:1;stroke:#000000;stroke-opacity:1"
       d="M 169.78821,316.45351 275.98842,375.0866"
       id="path50" />
    <path
       style="fill:#ff00ff;fill-opacity:1;stroke:#000000;stroke-width:0.116788;stroke-opacity:1"
       d="m 386.33577,302.87702 c -25.88613,-1.01894 -47.55078,-1.88428 -48.14367,-1.92299 l -1.07797,-0.0704 0.53296,-0.66081 c 6.81376,-8.44826 17.51619,-14.9136 29.92009,-18.07472 6.05678,-1.54356 11.29073,-2.18473 17.83428,-2.18473 4.95805,0 8.27872,0.2827 12.84672,1.09366 16.00279,2.84102 29.67802,11.02799 37.1419,22.23581 0.47998,0.72074 0.87269,1.3455 0.87269,1.38835 0,0.0428 -0.64379,0.0713 -1.43065,0.0632 -0.78686,-0.008 -22.61022,-0.84843 -48.49635,-1.86736 z"
       id="path51" />
    <path
       style="fill:#2b0000;fill-opacity:1;stroke:#000000;stroke-width:0.116788;stroke-opacity:1"
       d="m 329.45129,320.92367 c 0.0322,-0.25108 0.0894,-0.91593 0.12715,-1.47744 0.35181,-5.23365 2.63652,-11.46316 6.03562,-16.45674 l 0.68784,-1.01052 0.90015,0.053 c 0.49508,0.0291 22.34248,0.89016 48.54978,1.91343 26.20729,1.02326 48.39327,1.89509 49.30216,1.9374 1.56007,0.0726 1.655,0.0646 1.69688,-0.14379 0.0285,-0.14161 0.32168,0.32341 0.81815,1.29754 1.35092,2.65063 2.2264,4.99679 2.87672,7.70918 0.39456,1.64565 0.83729,4.46036 0.8383,5.32962 l 6.3e-4,0.54244 -1.78102,0.0665 c -0.97956,0.0366 -22.17226,0.17432 -47.09489,0.30613 -24.92263,0.1318 -49.29685,0.27344 -54.16493,0.31474 l -8.85107,0.0751 z"
       id="path52" />
    <path
       style="fill:#ffaaaa;fill-opacity:1;stroke:#000000;stroke-width:0.116788;stroke-opacity:1"
       d="m 348.20438,353.99758 c -10.20305,-6.92444 -16.57971,-16.11242 -18.32659,-26.40634 -0.25664,-1.51233 -0.53464,-4.75989 -0.43065,-5.03087 0.0539,-0.14052 0.91714,-0.1661 5.58569,-0.16549 3.03705,4e-4 28.19217,-0.13373 55.90025,-0.29806 27.70809,-0.16433 50.408,-0.26913 50.44423,-0.23289 0.11816,0.11816 -0.20013,4.17219 -0.44418,5.65762 -0.55253,3.36305 -1.66348,6.77668 -3.17501,9.75597 l -0.41114,0.81036 -43.19904,8.49671 c -23.75947,4.67319 -43.40925,8.52929 -43.66619,8.56911 -0.44573,0.0691 -0.55017,0.0161 -2.27737,-1.15612 z"
       id="path53" />
    <path
       style="fill:#89a02c;fill-opacity:1;stroke:#000000;stroke-width:0.116788;stroke-opacity:1"
       d="m 382.65694,364.71847 c -11.23647,-0.52812 -21.73781,-3.35845 -30.30657,-8.16825 l -0.81752,-0.45889 0.52554,-0.0997 c 0.28906,-0.0548 19.41898,-3.81766 42.51095,-8.3618 23.09197,-4.54413 42.00152,-8.25041 42.02121,-8.23616 0.0567,0.041 -0.87095,1.52863 -1.67293,2.68296 -8.02873,11.55612 -22.8649,19.78506 -39.68367,22.01071 -3.73682,0.49449 -9.41836,0.77961 -12.57701,0.63116 z"
       id="path54" />
    <path
       style="fill:#abc837;fill-opacity:1;stroke:#000000;stroke-width:0.165164;stroke-opacity:1"
       d="m 229.57744,332.05982 c -30.34056,-9.88335 -55.34036,-18.03254 -55.55512,-18.10932 -0.36524,-0.13059 -0.28688,-0.22499 1.21256,-1.46092 2.24833,-1.8532 5.1771,-3.92495 7.64743,-5.40962 13.87137,-8.33674 31.43886,-11.84931 48.46697,-9.69083 25.15942,3.1892 45.47786,17.84019 51.88865,37.41528 1.33572,4.07857 1.89617,7.38589 2.03314,11.99792 0.0929,3.1296 0.0842,3.26127 -0.21605,3.2446 -0.17211,-0.01 -25.13702,-8.10376 -55.47758,-17.98711 z"
       id="path55" />
    <path
       style="fill:#e5ffd5;fill-opacity:1;stroke:#000000;stroke-width:0.165164;stroke-opacity:1"
       d="m 223.25887,345.31033 c -28.72874,-15.86773 -52.21083,-28.92013 -52.18243,-29.00534 0.0284,-0.0852 0.41909,-0.46618 0.86818,-0.8466 l 0.81653,-0.69168 55.99047,18.22726 c 30.79476,10.02499 56.08338,18.19226 56.19693,18.14947 0.26271,-0.099 0.25946,0.0566 -0.0432,2.07192 -1.07322,7.14536 -3.68689,13.4683 -8.13615,19.68282 -0.50403,0.70401 -0.99738,1.27609 -1.09633,1.2713 -0.099,-0.005 -23.68524,-12.99142 -52.41397,-28.85915 z"
       id="path56" />
    <path
       style="fill:#b3b3b3;fill-opacity:1;stroke:#000000;stroke-width:0.165164;stroke-opacity:1"
       d="m 205.63481,357.24767 c -30.79455,-31.88471 -36.90403,-38.28514 -36.77349,-38.52479 0.0861,-0.15807 0.41527,-0.53626 0.73149,-0.84042 l 0.57495,-0.55302 52.24968,28.84628 c 28.73732,15.86545 52.31724,28.91351 52.39983,28.9957 0.30821,0.30672 -4.0527,4.83237 -7.14063,7.41037 -6.09967,5.09241 -13.96401,9.36431 -22.07833,11.99291 -1.18092,0.38256 -2.34655,0.74389 -2.59029,0.80296 -0.41471,0.10051 -2.81469,-2.34806 -37.37321,-38.12999 z"
       id="path57" />
    <path
       style="fill:#00ffff;fill-opacity:1;stroke:#000000;stroke-width:0.165164;stroke-opacity:1"
       d="m 192.46767,359.37815 c -24.53209,-38.14312 -25.30001,-39.37362 -24.57167,-39.37362 0.16583,0 73.25402,75.67004 73.21219,75.79843 -0.0523,0.1606 -3.64404,0.97189 -6.24551,1.41071 -4.62369,0.77994 -6.42299,0.93431 -11.97436,1.02732 l -5.36782,0.0899 z"
       id="path58" />
    <path
       style="fill:#0000ff;fill-opacity:1;stroke:#000000;stroke-width:0.165164;stroke-opacity:1"
       d="m 213.8869,398.01739 c -0.27252,-0.033 -1.4617,-0.17417 -2.64262,-0.31365 -6.2644,-0.73991 -13.92747,-2.80192 -19.88863,-5.35173 -7.9193,-3.38738 -14.23268,-7.58706 -19.84858,-13.20336 -4.59238,-4.59271 -7.85154,-9.21617 -10.20925,-14.48286 -5.2298,-11.68245 -4.97801,-24.10505 0.72278,-35.65984 1.17792,-2.3875 3.73382,-6.59187 4.44992,-7.31997 0.1764,-0.17936 4.53511,6.50057 24.62561,37.73989 13.4262,20.8768 24.51972,38.12505 24.65229,38.32944 0.23889,0.36833 0.23392,0.3714 -0.56251,0.34687 -0.44194,-0.0136 -1.02649,-0.0518 -1.29901,-0.0848 z"
       id="path59" />
  </g>
</svg>
